<svg id="visual" viewBox="0 0 900 500" width="900" height="500" xmlns="http://www.w3.org/2000/svg" xmlns:xlink="http://www.w3.org/1999/xlink" version="1.1"><rect width="900" height="500" fill="#bc4749"></rect><g><g transform="translate(641 219)"><path d="M93.3 -33.3C104.1 2.7 84.2 45.6 51.8 68.6C19.3 91.5 -25.8 94.5 -57.3 73C-88.8 51.4 -106.9 5.4 -95.1 -32.1C-83.3 -69.6 -41.6 -98.5 -0.2 -98.5C41.3 -98.4 82.6 -69.4 93.3 -33.3Z" stroke="#e07a5f" fill="none" stroke-width="20"></path></g><g transform="translate(104 426)"><path d="M67.6 -22.1C76.1 4.4 63.8 37.6 41.6 52.8C19.3 67.9 -12.8 64.9 -34.8 48.7C-56.7 32.6 -68.5 3.3 -61 -21.8C-53.5 -46.8 -26.7 -67.6 1.4 -68C29.5 -68.5 59 -48.6 67.6 -22.1Z" stroke="#e07a5f" fill="none" stroke-width="20"></path></g><g transform="translate(343 245)"><path d="M50.9 -17.3C57.5 3.8 48.6 29.2 30.1 43.1C11.5 56.9 -16.6 59.2 -35.1 46.3C-53.7 33.3 -62.6 5 -55.2 -17.2C-47.7 -39.5 -23.9 -55.8 -0.9 -55.5C22.1 -55.2 44.3 -38.4 50.9 -17.3Z" stroke="#e07a5f" fill="none" stroke-width="20"></path></g></g></svg>