<svg id="visual" viewBox="0 0 900 400" width="900" height="400" xmlns="http://www.w3.org/2000/svg" xmlns:xlink="http://www.w3.org/1999/xlink" version="1.1"><rect x="0" y="0" width="900" height="400" fill="#3d405b"></rect><path d="M0 254L129 270L257 244L386 292L514 286L643 245L771 254L900 275L900 401L771 401L643 401L514 401L386 401L257 401L129 401L0 401Z" fill="#f4f1de"></path><path d="M0 305L129 300L257 275L386 311L514 299L643 306L771 277L900 262L900 401L771 401L643 401L514 401L386 401L257 401L129 401L0 401Z" fill="#e1cba8"></path><path d="M0 302L129 300L257 315L386 318L514 340L643 292L771 334L900 315L900 401L771 401L643 401L514 401L386 401L257 401L129 401L0 401Z" fill="#d5a37a"></path><path d="M0 342L129 341L257 333L386 356L514 355L643 348L771 358L900 347L900 401L771 401L643 401L514 401L386 401L257 401L129 401L0 401Z" fill="#ca7859"></path><path d="M0 371L129 350L257 353L386 366L514 352L643 362L771 361L900 356L900 401L771 401L643 401L514 401L386 401L257 401L129 401L0 401Z" fill="#bc4749"></path></svg>